<svg width="20000" height="20000" viewBox="0 0 20000 20000" fill="none" xmlns="http://www.w3.org/2000/svg">
<rect width="20000" height="20000" rx="2000" fill="white"/>
<path d="M0 17168L2628.69 10438.9L7461.74 10004.7L0 17168Z" fill="url(#paint0_linear_2_16)"/>
<path d="M2633.82 13991.9L5225.23 8408.42L15020.8 9020.75L2633.82 13991.9Z" fill="url(#paint1_linear_2_16)"/>
<path d="M11131.3 17153.4L15020.8 9019.7L10405 8732.65L11131.3 17153.4Z" fill="url(#paint2_linear_2_16)"/>
<path d="M16312.2 2832L17043.9 4344.96L14104.1 5919.03L8981.33 8644.35L16312.2 2832Z" fill="url(#paint3_linear_2_16)"/>
<path d="M20000 6635.53L14422.1 5744.78L17043.1 4344.39L20000 6635.53Z" fill="url(#paint4_linear_2_16)"/>
<path d="M18497.1 7524.44L19999.3 6635.29L14416 5742.74L14092.5 5920.39L18497.1 7524.44Z" fill="url(#paint5_linear_2_16)"/>
<path d="M12937.8 5509.03L14423.4 5743.98L14096.2 5920.57L12937.8 5509.03Z" fill="url(#paint6_linear_2_16)"/>
<path d="M16730.3 6881.09L15018.3 9022.47L8982.81 8643.48L14095.7 5920.02L16730.3 6881.09Z" fill="url(#paint7_linear_2_16)"/>
<path d="M10583.8 10801.3L10404.6 8732.96L15021.1 9018.91L10583.8 10801.3Z" fill="url(#paint8_linear_2_16)"/>
<path d="M4352.56 10284.7L7457.61 10000.5L3792.02 13527.9L2633.6 13993.9L4352.56 10284.7Z" fill="url(#paint9_linear_2_16)"/>
<defs>
<linearGradient id="paint0_linear_2_16" x1="1828.12" y1="10627.9" x2="2275.34" y2="16411.6" gradientUnits="userSpaceOnUse">
<stop stop-color="#E5C4FF"/>
<stop offset="1" stop-color="#3E50F7"/>
</linearGradient>
<linearGradient id="paint1_linear_2_16" x1="4801.54" y1="8866.26" x2="9178.45" y2="12685.5" gradientUnits="userSpaceOnUse">
<stop stop-color="#E5C4FF"/>
<stop offset="1" stop-color="#3E50F7"/>
</linearGradient>
<linearGradient id="paint2_linear_2_16" x1="12712.9" y1="8732.65" x2="13595.7" y2="16374.9" gradientUnits="userSpaceOnUse">
<stop stop-color="#5061FF"/>
<stop offset="0.854167" stop-color="#E5C4FF"/>
</linearGradient>
<linearGradient id="paint3_linear_2_16" x1="17043.9" y1="5040.69" x2="10044.6" y2="6124.41" gradientUnits="userSpaceOnUse">
<stop stop-color="#E5C4FF"/>
<stop offset="1" stop-color="#3E50F7"/>
</linearGradient>
<linearGradient id="paint4_linear_2_16" x1="13724.8" y1="5902.37" x2="18726" y2="3770.46" gradientUnits="userSpaceOnUse">
<stop stop-color="#E5C4FF"/>
<stop offset="1" stop-color="#3E50F7"/>
</linearGradient>
<linearGradient id="paint5_linear_2_16" x1="14234.2" y1="5794.41" x2="15213.2" y2="8795.62" gradientUnits="userSpaceOnUse">
<stop stop-color="#E5C4FF"/>
<stop offset="1" stop-color="#D299FF"/>
</linearGradient>
<linearGradient id="paint6_linear_2_16" x1="12937.8" y1="5509.03" x2="13135.7" y2="6191.57" gradientUnits="userSpaceOnUse">
<stop stop-color="#3E50F7"/>
<stop offset="0.0001" stop-color="#E5C4FF"/>
</linearGradient>
<linearGradient id="paint7_linear_2_16" x1="16823.3" y1="6928.31" x2="13563.8" y2="11858.6" gradientUnits="userSpaceOnUse">
<stop stop-color="#E5C4FF"/>
<stop offset="1" stop-color="#3E50F7"/>
</linearGradient>
<linearGradient id="paint8_linear_2_16" x1="10123" y1="9957.42" x2="13337.1" y2="7008.28" gradientUnits="userSpaceOnUse">
<stop stop-color="#E5C4FF"/>
<stop offset="1" stop-color="#3E50F7"/>
</linearGradient>
<linearGradient id="paint9_linear_2_16" x1="7404.54" y1="10000.5" x2="3271.16" y2="14903.3" gradientUnits="userSpaceOnUse">
<stop stop-color="#E5C4FF"/>
<stop offset="1" stop-color="#3E50F7"/>
</linearGradient>
</defs>
</svg>
